<svg id="Capa_1" enable-background="new 0 0 512.129 512.129" height="512" viewBox="0 0 512.129 512.129" width="512" xmlns="http://www.w3.org/2000/svg">
<path d="m270 242.064h-50.525c30.785-24.948 50.525-63.192 50.525-106 0-74.991-60.561-136-135-136s-135 61.01-135 136c0 42.808 19.74 81.052 50.525 106h-50.525v270h270zm-30-106c0 53.307-39.183 97.543-90 104.914v-32.492c17.459-6.192 30-22.865 30-42.42 0-24.813-20.187-45-45-45-8.271 0-15-6.729-15-15s6.729-15 15-15 15 6.728 15 14.999h30c0-19.554-12.541-36.227-30-42.419v-32.495c50.817 7.37 90 51.606 90 104.913zm-210 0c0-53.308 39.183-97.543 90-104.914v32.495c-17.459 6.192-30 22.865-30 42.42 0 24.813 20.187 45 45 45 8.271 0 15 6.729 15 15s-6.729 15-15 15-15-6.729-15-15h-30c0 19.555 12.541 36.228 30 42.42v32.492c-50.817-7.37-90-51.605-90-104.913zm210 136v30h-210v-30zm-210 90v-30h210v30zm210 30v30h-210v-30zm-210 90v-30h210v30z"/>
<path d="m361 512.064h90v-331h61.129l-105.665-180.952-113.591 180.952h68.127zm-13.873-361 58.409-93.048 54.335 93.048h-38.871v331h-30v-331z"/></svg>